<?xml version="1.0" standalone="no"?>
<!DOCTYPE svg PUBLIC "-//W3C//DTD SVG 1.1//EN" "http://www.w3.org/Graphics/SVG/1.1/DTD/svg11.dtd" >
<!--
2013-9-30: Created.
-->
<svg>
<metadata>
Created by iconfont
</metadata>
<defs>

<font id="iconfont" horiz-adv-x="1024" >
  <font-face
    font-family="iconfont"
    font-weight="500"
    font-stretch="normal"
    units-per-em="1024"
    ascent="896"
    descent="-128"
  />
    <missing-glyph />
    
    <glyph glyph-name="danxuankuang2" unicode="&#58970;" d="M511.262708 808.930081c-282.94928 0-507.680625-227.918943-507.680625-509.094834 0-281.144168 227.918943-509.091764 509.063111-509.091764 281.175891 0 509.094834 227.947596 509.094834 509.091764C1021.740028 581.011138 794.210965 808.930081 511.262708 808.930081zM513.57845-114.347936c-230.264361 0-416.95225 186.68789-416.95225 416.951227 0 230.29199 186.68789 416.980903 416.95225 416.980903 230.293013 0 416.951227-186.688913 416.951227-416.980903C930.529677 72.33893 743.871463-114.347936 513.57845-114.347936zM820.797483 484.841845c-17.681708 18.584264-46.312792 18.584264-63.992453 0L464.229508 177.17665l-167.863149 156.252717c-17.682731 18.552541-46.310745 18.552541-63.9945 0-17.653055-18.587334-17.653055-48.718585 0-67.302849l195.650005-182.058452c16.922415-17.815761 43.955094-18.539238 61.715597-2.196015 8.93551 1.589195 17.507746 5.991458 24.409946 13.235442l306.648029 322.464249C838.448492 436.154983 838.448492 466.256558 820.797483 484.841845z"  horiz-adv-x="1024" />

    
    <glyph glyph-name="xinxi1" unicode="&#58883;" d="M512 857.6C209.92 857.6 0 673.28 0 442.88c0-145.92 66.56-273.92 217.6-348.16l0-184.32 261.12 120.32c10.24 0 23.04-2.56 33.28-2.56 302.08 0 512 184.32 512 414.72C1024 673.28 814.08 857.6 512 857.6zM256 371.2c-43.52 0-76.8 33.28-76.8 76.8 0 43.52 33.28 76.8 76.8 76.8 43.52 0 76.8-33.28 76.8-76.8C332.8 404.48 299.52 371.2 256 371.2zM512 371.2c-43.52 0-76.8 33.28-76.8 76.8 0 43.52 33.28 76.8 76.8 76.8s76.8-33.28 76.8-76.8C588.8 404.48 555.52 371.2 512 371.2zM768 371.2c-43.52 0-76.8 33.28-76.8 76.8 0 43.52 33.28 76.8 76.8 76.8 43.52 0 76.8-33.28 76.8-76.8C844.8 404.48 811.52 371.2 768 371.2z"  horiz-adv-x="1024" />

    
    <glyph glyph-name="qianjin" unicode="&#58909;" d="M795.10335 384 281.764913-128l-68.164691 68.116889 444.169919 444.169919-444.169919 444.122117 67.638876 67.591075L795.10335 384 795.10335 384z"  horiz-adv-x="1024" />

    
    <glyph glyph-name="duigou" unicode="&#58899;" d="M60.217477 262.089439c0 0 250.197342-104.557334 374.563838-330.628186 149.378146 279.762705 436.109566 540.713972 521.05012 560.013527 0 115.776863 0 163.394371 0 341.442486-342.237595-226.070852-506.576477-642.342604-506.576477-642.342604l-180.049702 191.614086L60.217477 262.089439z"  horiz-adv-x="1024" />

    
    <glyph glyph-name="guanbi" unicode="&#58884;" d="M762.332419 771.768581 702.050474 832.038246 261.667581 384.169869 702.050474-63.696462 762.332419-3.423727 400.015509 384.167822Z"  horiz-adv-x="1024" />

    
    <glyph glyph-name="geren" unicode="&#58927;" d="M512-128C794.308608-128 1024 101.69344 1024 384 1024 666.30656 794.308608 896 512 896S0 666.30656 0 384C0 101.69344 229.691392-128 512-128L512-128zM512 832c247.044096 0 448.002048-200.955904 448.002048-448 0-247.037952-200.957952-448.002048-448.002048-448.002048S64 136.962048 64 384C64 631.044096 264.955904 832 512 832L512 832zM512 696.004608c102.047744 0 184.80128-82.05312 184.80128-183.302144 0-101.218304-82.716672-183.26528-184.80128-183.26528-102.078464 0-184.768512 82.05312-184.768512 183.26528C327.231488 613.951488 409.954304 696.004608 512 696.004608L512 696.004608zM512 381.825024c72.900608 0 132.001792 58.619904 132.001792 130.914304 0 72.318976-59.101184 130.90816-132.001792 130.90816s-132.001792-58.621952-132.001792-130.90816C379.998208 440.414208 439.099392 381.825024 512 381.825024L512 381.825024zM512 381.825024c145.825792 0 264.003584-117.21728 264.003584-261.828608l-52.805632 0c0 115.648512-94.55616 209.440768-211.197952 209.440768s-211.202048-93.790208-211.202048-209.440768l-52.799488 0C247.998464 264.607744 366.174208 381.825024 512 381.825024L512 381.825024zM512 381.825024"  horiz-adv-x="1024" />

    
    <glyph glyph-name="wodedingdan" unicode="&#58959;" d="M759.016907 862.348576 263.814478 862.348576c-85.614913 0-155.262156-69.647243-155.262156-155.262156l0-643.75579c0-85.614913 69.647243-155.272389 155.262156-155.272389l459.948507 0 190.516078 217.740116L914.279063 707.086419C914.279063 792.701332 844.63182 862.348576 759.016907 862.348576zM171.480536 63.33063 171.480536 707.086419c0 50.9146 41.419342 92.333942 92.333942 92.333942l495.202429 0c50.9146 0 92.333942-41.419342 92.333942-92.333942l0-549.992289-171.587983 1.110287 0-187.217962L263.814478-29.013545C212.900901-29.013545 171.480536 12.41603 171.480536 63.33063zM312.312028 564.197058l396.159692 0c17.380856 0 31.464619 14.08274 31.464619 31.464619s-14.08274 31.464619-31.464619 31.464619L312.312028 627.126296c-17.380856 0-31.464619-14.08274-31.464619-31.464619S294.930149 564.197058 312.312028 564.197058zM312.312028 359.935931l396.159692 0c17.380856 0 31.464619 14.08274 31.464619 31.464619 0 17.380856-14.08274 31.464619-31.464619 31.464619L312.312028 422.865169c-17.380856 0-31.464619-14.08274-31.464619-31.464619C280.847409 374.018671 294.930149 359.935931 312.312028 359.935931zM473.248418 218.592786 312.312028 218.592786c-17.380856 0-31.464619-14.08274-31.464619-31.464619s14.08274-31.464619 31.464619-31.464619l160.936389 0c17.380856 0 31.464619 14.08274 31.464619 31.464619S490.629273 218.592786 473.248418 218.592786z"  horiz-adv-x="1024" />

    
    <glyph glyph-name="tupian" unicode="&#58890;" d="M942.611503 704.147134C942.611503 704.147134 1069.678135 705.409908 1069.678135 579.606043 1069.678135 579.606043 1081.43772 457.82727 942.611503 455.143876 942.611503 455.143876 818.228256 452.460481 819.491029 579.606043 819.491029 579.684966 818.149329 692.38755 942.611503 704.147134L942.611503 704.147134ZM1192.877529 895.457402C1192.877529 895.457402 1259.725635 890.248459 1259.725635 831.292695L1259.725635-47.755886C1259.725635-47.755886 1255.779462-110.65782 1192.877529-111.99952L1192.877529 895.457402 1192.877529 895.457402ZM0.58206-47.834813C0.58206-47.834813 3.265455-112.078438 64.82569-112.078438L1192.877529-112.078438 1192.877529 73.943962 1069.914908 73.943962 819.491029 328.156161 630.785234 138.266513 374.047485 455.222799 121.176982 76.548435 64.904613 75.285662 63.483992 831.213772 0.58206 831.213772 0.58206-47.834813 0.58206-47.834813ZM1192.877529 895.457402 64.82569 895.457402C64.82569 895.457402 0.58206 896.799099 0.58206 831.292695L1192.877529 831.292695 1192.877529 895.457402 1192.877529 895.457402Z"  horiz-adv-x="1261" />

    
    <glyph glyph-name="dianpu" unicode="&#58885;" d="M836.802 775.242l-7.239 10.905H204.87l-7.308-9.354C38.381 573.576 60.406 449.84 87.675 394.127c27.362-55.808 82.763-91.926 141.194-91.926h5.266c73.723 2.934 122.75 39.544 148.574 66.052 23.325-26.51 67.231-61.953 135.951-61.953 71.655 0 116.353 38.58 138.74 65.367 31.259-25.489 92.286-67.254 156.247-67.254 41.935 0 77.859 17.191 107.122 51.071 108.564 126.419-76.057 407.844-83.966 419.757z m46.481-388.016c-19.673-23.022-42.467-34.011-69.734-34.011-61.65 0-125.682 55.832-139.967 69.093V589.686c0.024 0.469 0.266 0.818 0.266 1.275 0 13.562-10.965 24.527-24.48 24.527-13.535 0-24.475-10.965-24.475-24.527h-0.266v-181.998c-13.368-18.226-47.248-53.861-105.966-53.861-66.294 0-100.821 45.324-110.174 59.729v176.13c0 13.562-10.965 24.527-24.455 24.527-13.537 0-24.501-10.965-24.501-24.527V415.72c-11.999-15.605-53.285-61.795-127.367-64.85h-3.294v0.048c-32.678 0-75.405 20.041-97.215 64.706-21.856 44.557-37.702 145.257 97.166 321.725h574.174c50.975-80.554 147.661-271.965 80.289-350.124z m-44.365-112.797c-13.586 0-24.649-11.013-24.695-24.597V72.078c0-27.315-22.147-49.439-49.389-49.439H258.492c-27.245 0-49.391 22.123-49.391 49.439V249.761c-0.024 13.632-11.06 24.669-24.671 24.669-13.61 0-24.645-11.036-24.693-24.669v-182.612c0-51.912 41.982-93.945 93.8-93.945h516.25c51.817 0 93.798 42.031 93.798 93.945V249.833c-0.069 13.586-11.083 24.597-24.667 24.597z"  horiz-adv-x="1024" />

    
    <glyph glyph-name="paizhao" unicode="&#58893;" d="M512 467.9c-59.8 0-108.3-48.5-108.3-108.3S452.2 251.3 512 251.3s108.3 48.5 108.3 108.3S571.8 467.9 512 467.9z m0-189.5c-44.9 0-81.2 36.4-81.2 81.2 0 44.8 36.4 81.2 81.2 81.2 44.8 0 81.2-36.4 81.2-81.2 0-44.8-36.4-81.2-81.2-81.2zM669.2 449.7c-9 0-16.2-7.3-16.2-16.3s7.3-16.2 16.2-16.2c9 0 16.3 7.3 16.3 16.2 0 9-7.3 16.3-16.3 16.3zM512.5 811.4c-240.2 0-435-194.7-435-435s194.7-435 435-435 435 194.7 435 435-194.7 435-435 435zM749 229.2c0-15.7-12.2-29.2-27.9-29.2H302.9c-15.8 0-27.9 13.5-27.9 29.2V476.3c0 15.7 12.1 27.7 27.9 27.7h85.5c28.5 0 38 58 57 58H569c28.3 0 39.1-58 66.5-58H721c15.7 0 27.9-11.9 27.9-27.7v-247.1z"  horiz-adv-x="1024" />

    
    <glyph glyph-name="dian" unicode="&#58889;" d="M512 576a192.064 192.064 0 0 0 0-384 192 192 0 0 0 0 384z"  horiz-adv-x="1024" />

    
    <glyph glyph-name="shanchu" unicode="&#58888;" d="M382.320274 490.642286v-384a20.626286 20.626286 0 0 0-21.577143-21.284572H317.44256a20.626286 20.626286 0 0 0-21.577143 21.357715v384a20.626286 20.626286 0 0 0 21.577143 21.284571h43.154286a20.626286 20.626286 0 0 0 21.577143-21.357714h0.073142z m172.909715 0v-384a20.626286 20.626286 0 0 0-21.650286-21.284572h-43.154286a20.626286 20.626286 0 0 0-21.577143 21.357715v384a20.626286 20.626286 0 0 0 21.577143 21.284571h43.154286a20.626286 20.626286 0 0 0 21.577143-21.357714z m172.909714 0v-384a20.626286 20.626286 0 0 0-21.650286-21.284572h-43.154286a20.626286 20.626286 0 0 0-21.577142 21.357715l-0.073143 384a20.626286 20.626286 0 0 0 21.577143 21.284571h43.227428a20.626286 20.626286 0 0 0 21.577143-21.357714z m86.381714-482.669715V640H209.483703v-631.954286a74.825143 74.825143 0 0 1 14.482286-45.056c3.364571-3.803429 5.778286-5.632 7.094857-5.632h561.883428c1.316571 0 3.657143 1.828571 7.094857 5.632a74.825143 74.825143 0 0 1 14.555429 44.982857zM360.743131 725.357714h302.518858l-32.402286 77.970286a19.017143 19.017143 0 0 1-11.483429 7.314286H405.287131a19.017143 19.017143 0 0 1-11.483428-7.314286l-33.060572-77.970286zM987.431131 704v-42.642286a20.626286 20.626286 0 0 0-21.577142-21.357714h-64.877715v-631.954286c0-36.937143-10.532571-68.754286-31.744-95.744-21.211429-26.843429-46.592-40.301714-76.288-40.301714H231.060846c-29.696 0-55.149714 13.019429-76.288 38.985143-21.211429 26.038857-31.744 57.490286-31.744 94.354286V640H58.151131A20.626286 20.626286 0 0 0 36.573989 661.357714v42.642286a20.626286 20.626286 0 0 0 21.577142 21.357714h208.676572L314.151131 836.681143c6.729143 16.457143 18.870857 30.427429 36.425143 41.984 17.554286 11.556571 35.401143 17.334857 53.394286 17.334857h216.064c17.993143 0 35.84-5.778286 53.394286-17.334857 17.554286-11.556571 29.696-25.6 36.425143-41.984l47.323428-111.323429h208.676572a20.626286 20.626286 0 0 0 21.577142-21.357714z"  horiz-adv-x="1024" />

    
    <glyph glyph-name="zhifubaozhifu" unicode="&#58905;" d="M1023.998645 173.176471c-41.968941 13.025882-298.736941 91.226353-359.04753 113.408C704.510645 355.463529 732.188762 433.618824 752.95488 519.529412H527.072527v75.294117h271.043765v45.176471H527.072527V775.529412h-103.107765C406.601939 775.529412 406.601939 760.470588 406.601939 760.470588v-120.470588H135.543115v-45.176471h271.058824v-75.294117H180.719586v-45.176471h436.705882c-15.856941-54.784-33.942588-103.664941-59.075764-150.437647C461.144998 356.457412 406.601939 384.722824 287.396292 396.047059 61.257939 417.626353 9.124292 286.087529 1.022645 209.076706-11.220179 91.828706 87.520527-7.529412 240.95488-7.529412c153.404235 0 258.861176 75.158588 356.080941 194.529883C721.602409 126.750118 1023.998645-7.529412 1023.998645-7.529412V173.176471z m-796.325647-102.957177c-162.123294 0-187.798588 103.785412-179.154824 147.169882C56.966174 260.623059 105.621233 320.752941 195.778409 320.752941c103.559529 0 189.801412-32.331294 301.176471-87.341176-78.215529-103.288471-169.502118-163.192471-269.281882-163.192471z"  horiz-adv-x="1024" />

    
    <glyph glyph-name="dui1" unicode="&#59011;" d="M851.712 854.784L448.9728 157.2096l-87.2704 0.0256-181.5552 181.5296L0 338.7904v-164.8128l224.9472-224.9728 0.0256 0.0256a121.472 121.472 0 0 1 86.2208-35.7376v-0.0768h208.256v0.0768c45.1584 0 84.1216 24.832 105.1648 61.2864l0.4864-0.2816L1024 665.1392V854.784h-172.288z"  horiz-adv-x="1024" />

    
    <glyph glyph-name="danxuankuang" unicode="&#58918;" d="M512 832a448 448 0 1 0-448-448 448 448 0 0 0 448 448m0 64a512 512 0 1 1 512-512 512 512 0 0 1-512 512z"  horiz-adv-x="1024" />

    
    <glyph glyph-name="weixinzhifu" unicode="&#58901;" d="M390.381889 251.20018300000004c-61.291983-37.02299-70.38298 20.775994-70.38298 20.775994l-76.809978 194.149945c-29.559992 92.261974 25.575993 41.596988 25.575993 41.596988s47.308987-38.763989 83.216976-62.383982c35.88599-23.631993 76.788978-6.939998 76.788979-6.939998L930.949736 689.470058C838.289763 814.353023 685.246806 896 511.974855 896 229.204935 896 0 678.708062 0 410.648137 0 256.44518100000005 75.889979 119.23022000000003 194.115945 30.290245000000027l-21.321994-132.755962s-10.399997-38.752989 25.622993-20.775994c24.540993 12.242997 87.107975 56.183984 124.357965 82.886976A535.231848 535.231848 0 0 1 511.999855-74.71472500000004c282.74792 0 511.998855 217.291938 511.998855 485.351862 0 77.640978-19.319995 150.969957-53.532985 216.062939C810.45977 522.4341059999999 438.327876 280.11017400000003 390.381889 251.20018300000004z"  horiz-adv-x="1024" />

    
    <glyph glyph-name="yixiajia" unicode="&#58880;" d="M1024.412 576.636c1.838-3.464 2.238-1.604 2.725-2.014-3.476 5.556-2.933 1.701-2.725 2.014zM990.08 631.378l0.994-0.731-5.784 7.649 4.79-6.918zM960.303 683.901c0.941-6.022 11.106-18.858 15.742-28.586l0.448-1.776 3.898-3.369c-6.697 11.237-16.065 25.433-20.088 33.731zM948.466 714.207c0.253-2.144-4.066 5.693 3.47-6.665l-0.49 1.282c-0.618 1.141-1.487 2.698-2.98 5.383zM951.459 708.828c3.186-5.497-1.446 3.966 0 0zM936.556 734.137l4.786-6.918c-0.433 1.772-4.017 8.308-2.328 6.08-4.613 7.261-4.157 5.481-2.458 0.838zM931.273 740.269l2.409-3.622c-0.185 0.766-0.697 1.8-2.409 3.622zM938.811 728.976l-5.122 7.676c0.295-1.236-0.253-1.685 2.292-3.557-0.926 0.329 0.499-0.949 2.83-4.119zM941.1 724.275c1.914-4.322 4.651-9.736-0.146-2.802 8.155-13.779 8.304-10.984 0.146 2.802zM956.862 685.491l2.545-5.773 3.305-4.369c-1.647 2.186-5.464 10.815-5.85 10.142zM911.787 780.064c-0.662 0.226 0.325-3.05 0.13-3.89l3.515-5.114c-1.31 2.914-4.024 8.304-3.645 9.004zM911.917 776.175l-5.256 7.672c4.004-7.236 5.069-8.373 5.256-7.672zM928.455 740.388l8.954-12.412-10.417 14.947 1.463-2.535zM894.392 810.832l3.511-4.042-5.999 7.342 2.488-3.3zM882.673 831.149c2.672-2.951-1.332 5.367 1.16 2.06-3.28 5.458-6.611 9.819-9.612 13.747 2.878-4.341 5.527-9.222 8.452-15.807zM869.29 853.614c1.471-2.155 3.124-4.318 4.915-6.662-1.54 2.305-3.143 4.518-4.915 6.662zM899.08 797.67c-0.114 0.766-0.156 2.32-2.461 6.979l0.674-3.802c0.543-0.967 1.175-2.058 1.787-3.177zM897.332 800.718l-0.023 0.134c-1.918 3.445-3.242 5.841-3.823 6.872 0.48-0.889 1.645-2.994 3.846-7.006zM899.526 796.87c-0.156 0.288-0.283 0.51-0.445 0.8 0.061-0.367 0.138-0.573 0.445-0.8zM917.503 762.067c-3.315 4.372-9.578 13.855-5.114 3.771 2.687-2.963 0.141 2.807 5.114-3.771zM900.36 792.139l4.594-8.698c0.203 0.341-0.237 2.12 1.409-0.042l-6.003 8.74zM897.638 796.131l2.722-3.993-1.699 3.223-1.023 0.77zM876.547 838.373c-2.588 3.423-4.9 7.435-7.588 11.96a372.35 372.35 0 0 1 8.036-14.945c0.75-0.488 2.57-2.237-0.448 2.985zM886.547 820.021c-0.168 0.256-0.367 0.552-0.524 0.792 0.196-0.567 0.39-0.992 0.524-0.792zM832.414 887.693l1.211 0.417 0.229 0.391-1.44-0.808zM877.26 834.442c1.872-3.797 3.389-5.849 4.924-7.737-1.64 2.742-3.346 5.598-5.183 8.687-0.33 0.205-0.465 0.205 0.259-0.95zM861.656 865.86c0.941-2.102 1.948-4.356 2.993-6.726-0.711 2.079-2.315 6.206-2.993 6.726zM885.621 822.226l0.36-0.524c-0.438 1.339-0.471 1.113-0.36 0.524zM885.621 822.226c-1.232 1.807-2.351 3.125-3.438 4.479 1.383-2.12 2.672-4.099 3.84-5.903a12.015 12.015 0 0 0-0.402 1.424zM821.096 871.787c-0.055 1.332 9.395 7.966 18.092 11.431 0.907 0.631 1.685 1.218 2.281 1.746 1.982-1.884 2.657-0.035 1.425 5.165-1.673 0.214-4.969-0.483-9.269-2.01-0.152-0.379-0.219-0.712-1.804-1.929l-8.219-5.719c0.822 0.276 2.446 1.003 4.326 1.849 2.389 1.133 5.068 2.393 7.415 3.499 4.728 2.177 7.095 2.966 2.638-0.185-6.975-4.307-9.388-5.563-10.96-6.144-1.708-0.675-2.756-0.785-5.647-2.06 5.371 1.332-13.174-9.961-9.651-10.482l9.438 6.24c0.336-0.196-2.948-2.688-0.065-1.401zM852.568 878.547l2.255-3.679c-1.244 2.557-2.324 4.809-3.605 7.446-1.544 3.319-3.289 7.098-5.583 12.028-0.566 0.885-1.13 1.658-1.13 1.658-8.645-5.486-10.11-6.772-10.65-7.5l10.161 5.693 9.528-17.029-0.976 1.383zM863.693 859.253c-2.68 2.074-7.891 10.152-6.209 4.352 5.868-10.16 5.008-6.607 8.958-12.434-9.632 16.312 3.307-4.364-2.802 7.89 2.021-3.124 3.735-6.007 5.329-8.725a5601.166 5601.166 0 0 1-4.308 8.805c0.055-0.165 0.097-0.284 0.149-0.422l0.039-0.072-0.02 0.007c0.256-0.792 0.302-1.071-0.063-0.229-0.046 0.077-0.163 0.252-0.209 0.33-0.241 0.019-0.543 0.252-0.864 0.498-2.469 4.904-0.143 0.918 0.85-0.497 0.092-0.02 0.219-0.123 0.276-0.115l-0.022 0.069-9.973 16.144c1.832-3.573 4.332-7.922 8.869-15.601zM904.973 773.257c-0.191 0.559-0.097 0.594-0.038 0.678-0.743 0.992-1.06 1.344 0.038-0.678zM901.807 780.432c0.834-1.11 1.854-1.856 3.95-5.822 1.577-3.576-0.551-0.287-0.823-0.673 1.627-2.179 5.475-7.768 1.85-0.088l-0.823 1.08c-3.385 6.864-6.811 16.193-6.003 15.121 0.083-2.509 0.34-4.63 1.849-9.618zM882.183 820.155l-8.335 13.421 2.986-7.553 0.387 0.692c4.2-7.947 3.967-5.845 4.962-6.56zM829.636 886.859l2.741 3.138c0.253 0.138-4.034-2.844-5.99-4.509-1.734-1.539-3.487-3.083-3.487-3.083l6.736 4.454zM810.962 876.094l0.083 1.405-4.364-3.3 4.281 1.895zM120.86 216.778l2.577-3.866c-1.173 1.853-1.973 3.031-2.577 3.866zM104.36 246.045l-0.919 0.425c1.045-1.198 1.558-1.635 0.919-0.425zM372.608 627.315c-6.423-2.366-13.854-4.59-12.472-5.352l2.446-0.112c3.992 2.529 7.215 4.19 10.026 5.464zM76.191 450.243c0.613 0.202 1.275 0.409 1.922 0.635 1.202 1.191 2.324 2.313 3.353 3.331-1.596-1.203-3.388-2.554-5.275-3.966zM74.72 443.187l-8.169-3.663c1.892 0.738 4.519 1.902 8.169 3.663zM218.876 126.036l4.05 3.825c-7.363-4.185-3.791-2.928-4.05-3.825zM628.371 771.971c-5.333-2.438-9.464-4.529-13.051-6.493 6.49 2.823 11.975 4.637 13.051 6.493zM102.277 221.444c1.612-2.35 2.438-3.277 2.646-3.07-1.632 2.436-2.665 3.748-2.646 3.07zM600.677 757.167c0.977 0.437 1.864 0.815 2.821 1.251 3.61 2.289 7.252 4.56 11.822 7.06-4.789-2.074-10.114-4.705-14.643-8.311zM798.225 453.37c0.462 0.195 0.945 0.413 1.39 0.598 0.042 0.228-0.547-0.097-1.39-0.598zM973.358 537.531c-1.669-0.968-4.346-2.535-6.884-4.004 1.307 0.619 3.385 1.814 6.884 4.004zM738.864 835.847c3.748 2.208 0.524 0.466 0 0zM759.823 841.792c-0.728-0.585-1.258-1.091-1.198-1.408 0.154 0.45 0.585 0.926 1.198 1.408zM566.97 728.704l-0.337-0.18c1.263 0.413 1.042 0.353 0.337 0.18zM744.855 838.553c-1.531-0.739-3.223-1.542-5.038-2.408 0.865 0.413 2.377 1.149 5.038 2.408zM743.782 838.664c1.333 0.704 2.369 1.251 3.369 1.776 0.365 0.452-0.125 0.333-3.369-1.776zM733.619 832.787c2.183 1.183 4.199 2.281 6.189 3.354-0.78-0.338-1.132-0.459-0.956-0.306-1.091-0.632-2.657-1.539-5.233-3.048zM489.83 274.429c0.275 0.106 0.559 0.226 0.865 0.353 3.548 2.641 1.915 1.611-0.865-0.353zM280.775 559.632l0.39 0.299c-0.176-0.096-0.402-0.192-0.585-0.283l0.195-0.016zM267.643 551.075c4.989 4.693 8.377 6.385 12.936 8.583l-6.347 0.724-6.589-9.307zM160.862 146.999l-4.398 10.13c8.215-10.574 12.373-19.245 8.721-9.46-4.318-0.658-21.412 36.912-25.715 36.23l-2.821 6.718c1.071-1.741 1.271-2.074 2.335-3.785-5.241 13.211-7.725 7.638-16.17 23.701-2.841 5.646-4.501 9.785-1.96 6.267l-7.825 11.749c-1.949 3.604-0.85 3.082 1.099-0.506l-10.88 18.518 0.187-0.076c-2.078 2.343-6.37 7.901-8.406 10.639-2.182 5.046 1.723-2.167 1.489-0.693l-6.73 9.861c-1.471 4.731 4.288-3.338 8.219-10.547-1.937 11.673-5.765 8.079-15.527 30.099l5.999-9.506c-1.554 7.445-6.608 14.649-11.616 26.412 0.827-3.006 9.368-23.912 2.113-13.193-1.528 3.319-3.76 7.558-7.909 13.207 1.24 0.778-2.43 6.513-6.704 13.871l1.968 0.44c-5.022 7.737-5.513 6.611-8.947 10.901-4.888 9.013-4.644 11.597-4.739 14.314-7.836 14.426 3.51-11.045-6.394 5.67-6.091 12.239-11.508 20.198-20.57 33.834-4.138 8.637 1.849-0.869 0.636 2.385l-5.521 6.604c-0.991 1.823-0.249 1.471 0.13 1.294-4.043 5.919-1.972-0.436-7.952 9.062-1.271 0.36-2.542 3.575-3.483 6.515 2.764 1.11 4.758 1.7 7.492 3.028 3.897 1.979 7.671 4.203 10.719 6.715 3.246 1.211-0.857-1.845 0.417-1.971 15.799 10.772 13.644 9.058 26.201 18.633l12.221 5.481c-9.233-3.58 0.807 4.077 9.64 10.704-3.366-1.096-6.245-2.041-8.123-2.765l14.705 9.532c1.995 0.773 0.789-0.669-1.306-2.787 0.941 0.728 1.818 1.409 2.553 1.991 5.793 2.465 3.518-0.101 0.153-3.254l-6.068-2.067c-3.182-3.15-6.053-6.274-4.721-6.807 0.888 0.75 2.691 1.998 4.732 3.289-0.823-0.839-1.324-1.44-0.763-1.341 0.613 0.114 1.999 1.39 4.234 3.228l4.521 0.095 0.414 1.225 20.562 10.115c13.185 9.961 23.992 19.739 46.165 33.337-4.831-4.548 0.058-2.92 0.685-4.705-7.15-1.788-17.093-10.666-29.018-16.968 6.229 3.288 5.313 1.753 3.909 0.601l20.006 13.399c0.279-1.585 5 1.528 10.772 4.081-5.624 0.283 14.589 10.578 22.629 16.202 1.029-0.585-0.501-2.643-10.991-8.303 12.56 4.51 13.039 11.473 25.22 16.155-2.52-1.458-3.962-2.098-4.709-3.116 5.479 4.138 20.282 11.726 17.327 9.03l-2.515-1.455c16.99 9.226 51.192 29.004 52.432 32.667 0.326-0.195-0.678-3.943-1.432-4.965l25.741 24.512c-1.554-3.415 11.175-2.212-2.155-11.201 4.158 1.986 9.288 4.494 17.342 9.945-2.883-1.271-8.369-1.087-4.743 1.191 11.45 3.679 7.769 2.89 21.412 8.239-4.327-1.911-1.486 3.674 5.046 7.236-0.759-1.015 2.225-2.649 0.022-4.303l14.43 12.07c-3.718-2.802 0.704-2.894 4.78-1.684-1.994-0.375 13.958 7.844 18.094 10.566l-7.217-3.189c18.434 9.866 15.604 14.333 33.725 24.402-1.834-1.842-3.27-6.803 6.121-1.98 3.35 3.902 14.501 17.81 29.8 28.032l3.557 0.876 11.676 7.928c-6.339-6.592-25.028-23.498-35.642-31.981 7.19 3.169 2.466 0.053 12.606 5.915 4.047 1.229-4.866-4.372-7.824-6.122l24.022 12.932c-2.057 1.164 17.139 12.047 15.401 13.012l-24.73-16.435c-2.044 1.159 12.063 13.437 29.049 22.667 4.682 1.727-1.409-4.942-0.734-5.329 1.838 1.841 15.297 10.206 17.077 10.646l-6.6-4.985c9.735 4.644 13.942 10.991 26.139 15.688 3.94 2.09 12.875 4.31 12.955 5.723-7.473-1.578-12.228 3.94-8.858 7.836 1.432 0.636 21.469 9.637 26.461 11.164 7.281 2.044-7.47-9.191-1.259-7.462-0.031 0.617 3.159 3.208 4.521 4.23 4.312 1.896-0.841-2.454 7.891 2.784 0.471 2.625 18.097 10.068 3.334 3.882 8.37 5.425 9.411 4.854 19.54 10.704-3.89-0.688 6.906 9.107 15.306 14.532-0.257-0.735 2.029-0.222 3.117 0.038 17.851 9.908 27.847 14.499 44.415 23.874 1.762 0.433 10.045 4.437 7.083 1.742 2.208 1.677 4.046 3.515 9.142 6.462 10.762 4.063-11.259-6.695-2.667-4.279 0.053 1.401 12.403 8.919 19.31 13.694-3.144 0.33-16.979-9.226-23.9-14-1.286 2.186 10.084 11.7 26.813 22.529 13.441 8.36 6.779 1.957 8.989 3.628C682.189 796.655 675.96 798.73 698.314 809.3c9.314 3.422 1.976-2.584 4.438-2.531-10.899-6.887-17.715-8.863-25.271-13.226l9.728 4.64c-3.308-2.496-10.585-7.083-14.889-8.993 7.856 2.783 43.784 24.516 64.385 34.654 3.281 2.48 9.119 6.442 5.899 5.367L736.41 825.44c-6.436-2.148 10.979 8.299 2.699 4.31 8.005 5.589 16.769 12.232 29.049 18.341l3.151-0.336c-0.518 0.325-8.323-3.461-11.401-5.842 4.567 3.526 19.49 8.188 23.747 13.373l-8.98-3.622c8.038 5.62 17.571 13.284 28.406 18.763-5.701-1.141-2.335-1.555-10.873-3.955 7.81 1.378-27.065-15.225-15.241-11.715-8.916-2.206-13.842-6.638-24.94-10.509 0.608-0.356 4.138 1.011-4.874-3.752-0.314-0.387-1.141-1.114-1.674-1.574-0.276-0.134-0.374-0.187-0.619-0.299l0.524 0.207c-0.341-0.303-0.363-0.321 0.188 0.084 2.247 0.965 4.123 1.653 4.969 1.753-3.706-3.714-17.825-11.669-22.231-14.996-5.394-2.726 1.864 1.853-1.329 0.796l-6.595-4.973c-1.363 0.781-15.08-5.969-3.083 1.746l-11.178-6.268c-6.941-3.067-16.113-7.917-21.405-11.573-5.396-2.729-12.541-8.832-8.482-5.314l-17.075-10.646-0.324 0.211c-17.335-9.651-34.401-22.089-55.335-31.155-5.644-3.591-11.431-7.361-21.335-12.537l-2.469-0.059c-7.255-4.583-22.978-11.676-25.573-14.559-9.598-1.822-36.533-19.934-49.92-26.889l0.264-1.597c-9.069-5.046-17.514-10.332-28.421-17.216l1.354-0.781c-9.111-6.447-25.306-13.246-40.519-22.04 0.789 1.038 4.725 3.116 7.627 4.398-19.754-7.691-37.419-23.766-55.07-31.223-3.879-2.764-6.96-4.314-10.016-5.658 0.36 0.237 0.678 0.436 0.983 0.643-0.433-0.245-1.06-0.581-1.711-0.945-1.929-0.835-3.965-1.719-6.082-2.634 1.897 0.693 3.687 1.401 5.18 2.106-3.17-1.818-7.909-4.705-12.477-7.683l-2.733 0.119c-0.382-0.242-0.677-0.406-1.075-0.659-4.903-2.17-3.399-2.722-0.38-2.255-2.254-1.554-4.299-3.039-5.815-4.299-4.934-0.111-12.027-7.722-18.414-8.468-2.58-2.872-23.322-14.279-24.573-17.94-0.337 0.2-1.808-0.455 0.738 1.003-5.416-2.733-10.829-5.471-15.209-8.785l-3.147 0.33-10.294-8.683c-7.553-2.99-10.772-4.073-4.529 1.106-15.695-11.412-13.2-8.434-26.403-18.406l0.107 1.432c-5.08-2.929-12.434-8.939-15.994-9.824-12.526-4.499-56.59-31.732-86.902-46.514 7.408 0.169-14.379-6.348-14.202-9.372-2.122-0.252-6.428-2.152-2.048 1.167-14.543-9.188-23.096-11.588-32.277-19.439-2.124-0.241 2.601 2.878 0.827 2.438-1.118-0.834-4.391-3.327-6.179-3.767-1.772-0.437 1.849 1.849 4.031 3.503-15.187-8.774-15.478-11.883-15.405-14.601-8.303-3.399-12.078-5.728-16.891-10.269-3.078-0.838-7.967-2.68 1.363 2.947-5.387-2.925-33.156-17.487-32.744-19.466-1.911-0.521-7.531-4.107-8.832-5.1-6.014-3.319-9.295-5.126-12.545-6.926-3.951-2.267-7.871-4.498-15.068-8.61l4.664 2.285c-1.425-1.757-3.085-3.043-5.375-4.421 1.282-2.148 2.438-4.483 3.901-7.328 0.758-1.443 1.559-2.979 2.423-4.609 0.774-1.358 1.585-2.799 2.481-4.371l-0.368 0.156c10.877-22.553 6.018-8.988 16.519-31.368l0.597 1.884c3.828-0.468 9.169-19.896 17.27-31.752l-1.83 4.896c4.771-6.267 7.098-21.079 10.635-28.096 0.604-1.619-1.707 2.136-3.063 4.108 8.541-18.771 2.963-1.376 10.892-14.472 0.501-2.96-4.047 1.888 0.865-7.175 1.811-4.865 17.618-24.355 22.854-37.544-0.846 3.078-1.688 6.133 2.331 0.253 5.631-9.337 11.959-27.097 18.965-34.438 0.49-1.302 0.578-1.864 0.433-2.011 4.663-6.932 14.276-23.02 17.92-26.729-0.536-9.149 27.656-43.838 23.567-45.959l12.856-22.162-0.739 0.354c3.909-7.205 6.812-11.921 9.227-15.406 2.416-3.483 4.169-5.471 6.75-8.877 2.297-4.702 0.184-1.851-0.234-1.585 2.006-3.768 3.802-7.117 5.394-10.104 5.433 2.979 9.785 5.359 13.644 7.47 3.392 1.913 5.107 2.963 7.523 4.487 4.49 2.867 8.885 6.06 16.06 11.277l2.553-0.272c4.292 3.434 31.243 15.032 50.802 28.13-0.111-0.261-0.394-0.75-1.922-1.856 22.107 14.548 57.041 27.579 62.769 37.092l14.497 9.767c-19.823-10.746 1.761 3.709-6.75-0.081 7.542 4.652 20.738 9.886 11.401 4.27l-1.62-0.609c-2.078-4.43 24.868 12.943 25.29 10.983 38.523 21.997 76.902 41.973 113.121 62.358l-5.248-0.441 12.656 7.036c3.571 1.429 5.297 1.027-3.753-4 5.349 1.598 14.578 9.464 14.586 10.031 18.043 9.206-5.611-6.137-0.18-3.125l7.25 4.299-1.779-0.711c5.489 4.146 5.559 5.282 16.423 11.313 7.067 3.503 4.177 0.812 6.923 2.271 0.062-0.154 1.01 0.302 4.165 2.284l15.985 8.851-7.208-2.09c6.623 4.731 14.98 8.398 6.685 5.952 12.254 3.469 59.79 32.659 66.86 35.588 9.242 6.699 18.974 12.2 31.102 18.91-3.178-1.386-5.93-0.711 4.59 4.984-1.821-5.666 19.914 9.276 29.745 11.523-8.464-2.588 29.321 17.186 16.198 12.883 8.843 4.637 1.271-1.019 8.326 1.896 19.884 13.069 46.021 24.934 71.278 39.871 0.146 0.685-4.537-1.025 0.544 2.76l14.792 5.341c4.9 3.086 3.14 5.287 13.254 8.92-1.52-0.341-3.798-0.865-0.498 1.198 51.287 26.128 101.162 59.802 154.349 84.395-7.38-3.005-2.854-0.31 2.39 2.691-3.538-1.73-0.571 1.183-1.6 1.428l22.254 10.328c2.894 3.928 22.731 13.043 24.015 15.965l-6.562-4.116c7.844 7.033-14.999-2.764-15.115 0.49-8.763-7.909-28.301-11.711-42.96-24.213-3.925-1.55 2.646 2.568 0.374 2.041-3.563-3.438-8.479-6.516-18.08-11.328l0.915 0.866c-26.082-15.141-37.908-20.447-67.775-36.453l2.883-0.012c-6.42-3.426-7.971-3.786-11.11-5.152-6.189-6.006 17.837 9.98 12.4 4.15-9.839-2.232-44.661-25.271-51.97-25.63-9.745-5.505 3.672 0.188-6.071-5.325l-3.028-0.681-1.888-2.397c-6.477-3.453-10.241-4.313-10.856-3.806 1.597 0.805 4.296 2.685 5.938 3.684-8.797-3.782-23.173-13.557-26.181-14.866l9.627 4.828c-26.166-15.791-59.189-33.176-83.97-49.316l2.281 0.524c-18.988-12.204-16.067-8.266-37.303-20.959l0.704 0.586c-3.979-3.032-9.563-6.588-15.489-9.874 5.05 3.779-10.977-4.455-4.285 0.334-20.6-13.212-9.995-6.873-22.804-17.014l-3.787-0.866c-4.29-3.595-4.421-4.279-15.037-10.627 8.354 5.834-7.691-2.41 1.556 4.299-23.76-10.681-32.277-21.147-44.397-23.914-8.84-8.572 20.374 9.585 14.888 5.719 5.353 1.88-7.423-6.86-14.646-10.596-7.243-4.039-14.202-3.512-32.298-13.851 1.707 1.088 1.917 1.209 3.625 2.296-7.174-3.166-12.771-8.471-21.725-12.078-3.74-4.265-10.851-6.03-11.029-8.865l16.357 9.911c-9.11-5.892-16.588-13.319-32.789-20.956 0.974 1.103 5.284 4.272 8.281 6.381-4.896-1.96-8.514-5.367-13.575-7.415 0.16 2.836 19.956 11.91 29.157 19.226-5.36-1.896-18.254-12.343-14.448-7.225-5.67-6.986-18.062-9.758-29.099-18.915l0.095 1.7c-1.829-1.291-5.521-4.162-9.123-6.16l5.559 5.277c-9.16-7.005-19.833-9.657-28.945-15.817 19.941 11.355 5.33 1.044 14.284 4.916-23.671-15.62-16.007-4.789-43.226-21.006 3.628 2.289 14.433 7.197 8.927 3.315-5.391-2.714-12.588-6.172-16.178-7.339-18.112-10.62 3.521 0.306-3.806-4.87-7.074-2.01-8.622-5.692-16.351-10.724l-0.777 1.232c-21.262-10.998-4.02-5.754-23.313-15.416l6.933 6.241-9.517-5.991 1.205 2.573c-10.037-7.099-13.494-8.687-24.132-14.199 2.917 0.49-0.066-3.063-9.257-8.335-6.711-2.821 2.833 3.201-10.122-4.387 2.5 2.465 5.164 5.29 11.508 7.351 0.353 0.742 2.451 2.446 2.834 3.196-7.259-2.975-17.128-9.464-21.849-12.146 1.849 0.979 4.069 2.144 5.279 2.599l-17.939-12.495c-3.254-1.215-1.104 0.513 1.022 2.204-3.755-2.319-6.091-4.398-11.657-7.71 0.884 1.85-0.064 2.71 7.634 7.733l-17.396-11.381c-1.458-0.23-9.949-4.023-7.829-2.309-10.344-5.072-23.409-15.902-37.126-22.641-0.571-0.574-1.842-1.555-4.591-3.305-5.99-3.111-11.764-6.128-17.702-9.215-2.856-1.504-6.213-3.346-8.804-4.874-0.816-0.517-1.639-1.159-2.826-2.193l-0.497 0.417s-0.157 1.337-0.069 2.255c0.031 1.034 0.49 1.283 0.153 1.875-6.979 11.324 4.119-12.667-7.507 6.206-8.334 13.311-1.317 5.979-3.522 11.057-4.774 6.251-13.353 16.979-18.969 30.362 2.711-4.063 4.285-7.47 6.617-11.261zM79.109 289.251c1.845-2.618 5.777-7.663 6.187-10.11-3.241 2.32-3.94 5.161-6.187 10.11zM98.59 459.737c-1.818-1.586-5.11-3.186-8.98-4.736a76.145 76.145 0 0 0 8.98 4.736zM697.939 811.285l-0.253-0.23c-6.446-3.006-4.156-1.964 0.253 0.23zM711.067 817.999c1.183 0.908 0.996 1.03 0.356 0.896-0.712-0.831-3.583-2.474-6.91-4.246 1.105 0.184 2.893 0.9 6.554 3.35zM535.083 288.857l-2.675-1.081c5.428 3.553 4.035 2.341 2.675 1.081zM74.966 444.049c-0.903-0.23-1.251-0.119-1.565 0.016-0.973-0.828-0.855-1.093 1.565-0.016zM218.136 125.316l0.429 0.23c0.195 0.218 0.276 0.363 0.306 0.487l-0.735-0.717zM518.726 694.754c-2.737-1.309-4.341-1.915-5.463-2.228 0.034-0.393 1.381 0.02 5.463 2.228zM777.724 858.636l-8.016-4.977c3.928 2.309 5.497 2.841 7.626 3.774-0.349 0.189-2.171-0.266 0.39 1.203zM848.027 872.517c0.839-1.114 1.458-2.535 2.278-3.625l0.405 0.659c-2.944 5.092-5.447 8.41-2.683 2.966zM787.701 858.759c1.248-0.693 6.186 2.58 11.829 6.038l-1.01-0.578c0.849 2.438-4.995-1.525-10.819-5.46zM800.852 865.581a104.524 104.524 0 0 0 5.294 3.04c0.329 0.987-2.232-1.1-5.294-3.04zM726.911 827.914c2.876 1.275 0.938 2.328 2.73 2.775 2.27 3.079-17.25-11.939-2.73-2.775zM794.346 857.886l-2.81 0.146-2.626-2.875 5.436 2.729zM748.418 833.117l9.384 4.835c-0.27 0.141 0.831 0.938 2.204 1.845-5.681-3.155-12.023-6.416-11.588-6.68zM760.016 839.797c2.97 1.643 5.745 3.27 7.273 4.406-1.601-0.906-5.001-2.901-7.273-4.406zM782.012 850.371l-2.863-1.255-6.547-3.591 9.41 4.846zM649.541 777.369l-9.812-6.064c-0.767-1.034 2.12 0.245 5.742 2.55 2.236 1.673 5.87 3.954 4.07 3.514zM681.903 790.983c-2.864-1.275-3.209-1.077-4.984-1.513l0.612-1.803 4.372 3.316zM652.892 774.02c-0.746-1.019-13.815-9.541-1.172-2.236 0.769 1.022 10.589 7.09 1.172 2.236zM500.698 690.418l2.534 1.473-1.871 2.454-0.663-3.927zM371.206 608.553c12.238 6.091 1.887 3.23 13.069 8.525 2.424 2.213-9.153-4.323-6.596-2.148-6.775-4.739-10.768-6.492-6.473-6.377zM377.695 614.936c1.042 0.75 2.172 1.562 3.423 2.477-1.983-1.345-2.894-2.034-3.423-2.477zM1002.146 551.975l7.96 3.783-5.44-1.915-2.52-1.868zM1015.698 562.262l2.771-0.679 3.714 4.146c-1.688-1.059-4.957-3.111-6.485-3.467zM70.503 312.408l-0.728 0.354c0.23-1.436 1.206-3.243 3.17-6.856l-2.442 6.502zM127.972 208.107l-0.972 1.799 0.356-4.203 0.616 2.404zM179.241 122.28c-2.078 3.511-4.529 7.649-6.604 11.163 4.656-7.588 5.233-13.214 6.604-11.163zM209.072 377.081l16.802 9.7 15.452-26.765 116.827 67.45-28.987 50.208-140.857-81.324-8.347 14.457 157.268 90.798 52.563-91.04-16.411-9.475-6.881 11.917-116.827-67.45 32.823-56.851c6.918-11.982 16.042-14.703 27.374-8.161l96.313 55.606c11.2 6.467 15.643 14.415 13.325 23.844-2.243 9.299-6.613 20.929-13.111 34.89 6.357 0.718 13.086 1.998 20.186 3.839 5.996-14.599 10.284-26.538 12.861-35.813 4.59-16.973-2.101-30.649-20.074-41.026l-103.934-60.006c-19.927-11.505-35.832-6.967-47.711 13.61l-58.654 101.592zM370.96 517.174l189.893 109.635 9.249-16.02-94.946-54.817 24.589-42.589 1.769 17.692c39.976-0.363 74.118-1.75 102.429-4.161l-2.391-22.479c-29.137 3.841-62.733 6.24-100.791 7.189l66.209-114.678-17.777-10.264-91.813 159.025-77.169-44.553-9.251 16.02zM577.882 629.347l28.133 16.242c-3.52 6.998-7.648 14.6-12.386 22.805l14.457 8.347c4.7-8.141 8.86-15.723 12.482-22.749l43.859 25.322c9.725-18.35 17.395-33.286 23.004-44.807 6.062-12.304 8.369-21.564 6.923-27.782-1.056-5.994-6.402-11.771-16.039-17.335-3.907-2.256-9.024-5.125-15.352-8.603-3.92 4.682-7.847 8.927-11.78 12.734 8.134 3.655 14.286 6.686 18.454 9.092 7.554 4.361 9.287 10.832 5.202 19.414-6.403 13.495-12.265 25.305-17.59 35.429l-29.987-17.313c14.682-27.991 15.895-58.288 3.636-90.894-5.026 1.787-10.871 3.187-17.535 4.203 11.465 26.762 11.182 52.822-0.852 78.174l-26.96-15.565-7.669 13.286z m273.685-38.655c-1.738-8.121-2.918-15.402-3.541-21.841-38.822-7.651-74.723-5.328-107.701 6.978l35.248-61.051-14.848-8.572-35.417 61.344c-8.12-36.467-23.808-69.751-47.065-99.85-5.253 2.177-11.588 4.427-19.002 6.743 23.802 27.2 41.475 57.2 53.015 89.999l-75.215-43.425-7.896 13.675 86.351 49.854-12.633 21.881L717.71 615l12.633-21.881 87.327 50.418 7.896-13.675-76.877-44.384c32.803-8.239 67.095-6.502 102.878 5.214zM678.184 694.289l71.112 41.057 44.44-76.973-14.457-8.347-5.752 9.964-42.199-24.363 6.091-10.55-14.456-8.347-44.779 77.559z m64.325 19.425l-42.198-24.363 23.348-40.44 42.199 24.363-23.349 40.44z"  horiz-adv-x="1028" />

    
    <glyph glyph-name="shenglve" unicode="&#59108;" d="M135.68 258.56C66.56 258.56 10.24 314.88 10.24 384s56.32 125.44 125.44 125.44S261.12 453.12 261.12 384s-56.32-125.44-125.44-125.44zM512 258.56c-69.12 0-125.44 56.32-125.44 125.44s56.32 125.44 125.44 125.44 125.44-56.32 125.44-125.44-56.32-125.44-125.44-125.44zM888.32 258.56c-69.12 0-125.44 56.32-125.44 125.44s56.32 125.44 125.44 125.44S1013.76 453.12 1013.76 384s-56.32-125.44-125.44-125.44z"  horiz-adv-x="1024" />

    
    <glyph glyph-name="dingwei" unicode="&#59029;" d="M512-128C470.656-128 128 252.757333 128 512a384 384 0 0 0 768 0c0-259.242667-341.994667-640-384-640z m0 832a213.333333 213.333333 0 1 1 213.333333-213.333333A213.333333 213.333333 0 0 1 512 704z m0-341.333333a128 128 0 1 0 128 128 128 128 0 0 0-128-128z"  horiz-adv-x="1024" />

    
    <glyph glyph-name="dui" unicode="&#58892;" d="M1462.405875 773.790111L593.987956-94.62959899999998a71.752046 71.752046 0 0 0-9.85783-12.390297c-27.957365-27.957365-73.285844-27.957365-101.243208 0l-1.263549 1.263549-0.00179 0.00179-0.00179 0.00179L20.968471 354.898551c-27.957365 27.957365-27.957365 73.285844 0 101.243208 27.957365 27.957365 73.285844 27.957365 101.241418 0l410.032399-410.032398L1361.164457 875.031529c27.957365 27.957365 73.285844 27.957365 101.243208 0 27.955575-27.957365 27.955575-73.284054-0.00179-101.241418z"  horiz-adv-x="1483" />

    
    <glyph glyph-name="shouzhimingxicaifuqianbao-xianxing" unicode="&#59279;" d="M898.4 210.4c-16.8 0-28-11.2-28-28v-123.2H131.2V602.4h739.1v-117.6c0-16.8 11.2-28 28-28s28 11.2 28 28v112c0 33.6-28 61.6-61.6 61.6H820c-16.8 61.6-72.8 112-140 112H209.6C131.2 770.4 64 703.2 64 624.8v-565.6c0-33.6 28-61.6 61.6-61.6h739.1c33.6 0 61.6 28 61.6 61.6V182.4c0.1 11.2-11.1 28-27.9 28zM209.6 708.8H680c33.6 0 61.6-22.4 78.4-50.4H136.8c11.2 28 39.2 50.4 72.8 50.4zM853.6 434.4H702.4c-56 0-106.4-44.8-106.4-106.4s44.8-106.4 106.4-106.4h151.2c56 0 106.4 44.8 106.4 106.4s-44.8 106.4-106.4 106.4z m0-151.2H702.4c-22.4 0-44.8 16.8-44.8 44.8 0 22.4 16.8 44.8 44.8 44.8h151.2c22.4 0 44.8-16.8 44.8-44.8 0-22.4-16.8-44.8-44.8-44.8zM680 328c0-15.5 12.5-28 28-28s28 12.5 28 28-12.5 28-28 28-28-12.5-28-28z"  horiz-adv-x="1024" />

    
    <glyph glyph-name="xinxi" unicode="&#58928;" d="M890.6 545.7c-21.6 45.2-52.5 85.7-91.7 120.5-39.1 34.6-84.5 61.7-135 80.6-52.2 19.5-107.5 29.4-164.6 29.4-57 0-112.4-9.9-164.6-29.4-50.5-18.9-96-46-135-80.6-39.3-34.8-70.1-75.3-91.7-120.5-22.5-47-33.9-97-33.9-148.6 0-91.8 34.2-160.1 62.9-201.2 21.5-30.9 43.2-51.5 55.1-61.7l13.4-191.8c0.7-9.3 6.7-17.4 15.4-20.8 2.8-1.1 5.7-1.6 8.5-1.6 6.2 0 12.2 2.4 16.8 6.9l138.6 135.9c9.5 9.3 9.6 24.5 0.3 33.9-9.3 9.5-24.5 9.6-33.9 0.3l-101.5-99.6L239.2 148c-0.5 7.1-4.1 13.6-9.8 17.7-1.1 0.8-107.4 79.8-107.4 231.4 0 182.5 169.2 331.1 377.2 331.1s377.2-148.5 377.2-331.1c0-182.5-169.2-331.1-377.2-331.1-20.2 0-40.4 1.4-60.2 4.2-13.1 1.9-25.3-7.3-27.1-20.4-1.8-13.1 7.3-25.3 20.4-27.1 22-3.1 44.5-4.7 66.9-4.7 57 0 112.4 9.9 164.6 29.4 50.5 18.9 96 46 135 80.6 39.3 34.8 70.1 75.3 91.7 120.5 22.5 47 33.9 97 33.9 148.6 0.1 51.6-11.3 101.6-33.8 148.6zM307.2 394.3m-69 0a69 69 0 1 1 138 0 69 69 0 1 1-138 0ZM511.6 394.3m-69 0a69 69 0 1 1 138 0 69 69 0 1 1-138 0ZM716 394.3m-69 0a69 69 0 1 1 138 0 69 69 0 1 1-138 0Z"  horiz-adv-x="1024" />

    
    <glyph glyph-name="shezhi" unicode="&#59178;" d="M230.792 305.072l-87.096-50.285 72.5-125.574L303.47 179.6c36.875-37.615 83.847-65.296 136.53-78.656V0h145V101.2c52.449 13.499 99.195 41.204 135.891 78.77l87.913-50.757 72.5 125.574-87.957 50.782C800.289 330.526 804 356.829 804 384c0 27.17-3.71 53.474-10.653 78.431l87.957 50.782-72.5 125.574-87.913-50.756C684.195 625.596 637.45 653.3 585 666.8V768H440v-100.944c-52.683-13.36-99.655-41.04-136.53-78.656l-87.274 50.387-72.5-125.574 87.096-50.285C223.76 437.823 220 411.351 220 384c0-27.35 3.76-53.823 10.792-78.928z m-71.035 27.024A358.94 358.94 0 0 0 156 384c0 13.516 0.753 26.856 2.22 39.98l-77.241 44.595c-15.305 8.837-20.55 28.408-11.713 43.713l104.5 181c8.837 15.305 28.408 20.549 43.713 11.712l73.111-42.21c25.798 20.515 54.508 37.525 85.41 50.31V800c0 17.673 14.327 32 32 32h209c17.673 0 32-14.327 32-32v-87.316c30.522-12.737 58.89-29.6 84.41-49.895L806.521 705c15.305 8.837 34.876 3.593 43.713-11.713l104.5-181c8.836-15.304 3.592-34.875-11.713-43.712l-77.24-44.595A359.878 359.878 0 0 0 868 384a358.94 358.94 0 0 0-3.757-51.904l73.778-42.596c15.305-8.837 20.55-28.407 11.713-43.713l-104.5-181c-8.837-15.304-28.408-20.548-43.713-11.712l-77.633 44.821A355.51 355.51 0 0 0 649 55.316V-32c0-17.673-14.327-32-32-32H408c-17.673 0-32 14.327-32 32v86.9a355.487 355.487 0 0 0-75.888 42.996l-77.633-44.82c-15.305-8.837-34.876-3.593-43.713 11.712l-104.5 181c-8.836 15.305-3.592 34.875 11.713 43.712l73.778 42.596zM512 219c-91.127 0-165 73.873-165 165s73.873 165 165 165 165-73.873 165-165-73.873-165-165-165z m0 64c55.78 0 101 45.22 101 101s-45.22 101-101 101-101-45.22-101-101 45.22-101 101-101z"  horiz-adv-x="1024" />

    


  </font>
</defs>
</svg>
